# xmcd
#
# Track frame offsets: 
#        150
#        9581
#        28200
#        47002
#        82855
#        106392
#        127491
#        154274
#        168832
#        200464
#        233865
#        254630
#        272755
#
# Disc length: 3972 seconds
#
# Revision: 0
# Processed by: cddbd v1.5.2PL0 Copyright (c) Steve Scherf et al.
# Submitted via: ExactAudioCopy v1.3
#
DISCID=b20f820d
DTITLE=Damien Lopez Blues Band - Live at Cognac [CD 1)
DYEAR=2001
DGENRE=Blues
TTITLE0=Scuttle Butin'
TTITLE1=Testify
TTITLE2=Pride and Joy
TTITLE3=Texas Flood
TTITLE4=Lenny
TTITLE5=All Along The Watchtower
TTITLE6=Chitlin's Con Carne
TTITLE7=Fire
TTITLE8=Leave My Girl Alone
TTITLE9=Couldn't Stand The Weather
TTITLE10=Little Wing
TTITLE11=Rugged Road
TTITLE12=The Thrill Is Gone
EXTD=
EXTT0=
EXTT1=
EXTT2=
EXTT3=
EXTT4=
EXTT5=
EXTT6=
EXTT7=
EXTT8=
EXTT9=
EXTT10=
EXTT11=
EXTT12=
PLAYORDER=
